<svg id="Layer_1" data-name="Layer 1" xmlns="http://www.w3.org/2000/svg" xmlns:xlink="http://www.w3.org/1999/xlink" viewBox="0 0 980.12 734.67"><defs><style>.cls-1{fill-rule:evenodd;fill:url(#linear-gradient);}.cls-2{font-size:223.14px;}.cls-2,.cls-3,.cls-4{font-family:Yellowtail-Regular, Yellowtail;}.cls-3{font-size:210.72px;}.cls-4{font-size:212.11px;fill:#890000;}</style><linearGradient id="linear-gradient" x1="332.8" y1="514.11" x2="858.59" y2="514.11" gradientUnits="userSpaceOnUse"><stop offset="0" stop-color="#79425c"/><stop offset="1" stop-color="#9f3f61"/></linearGradient></defs><path class="cls-1" d="M480.29,147a39.4,39.4,0,0,1-6.51.4,115.48,115.48,0,0,0-24.59,2.76c-2.42.54-5.5,1.23-6.81,1.51-3.14.68-12.26,3.64-13,4.21a4.52,4.52,0,0,1-1.45.49,3,3,0,0,0-1.45.6,5.09,5.09,0,0,1-1.84.82,6.52,6.52,0,0,0-1.95.83,5.31,5.31,0,0,1-1.37.65,10.46,10.46,0,0,0-2,1.05,5.75,5.75,0,0,1-1.42.74c-.65,0-11.29,6.41-13.15,7.89-.33.28-1.07.82-1.6,1.22s-1.78,1.4-2.72,2.19a10.38,10.38,0,0,1-2,1.51c-.35,0-6.87,6.32-10.84,10.53a52.92,52.92,0,0,0-6.07,7.4c-1.24,1.83-3,4.36-3.58,5.19a72.94,72.94,0,0,0-5.48,9.62,6.62,6.62,0,0,1-.92,1.73,9.73,9.73,0,0,0-.89,1.85,9.68,9.68,0,0,1-.89,2,2.16,2.16,0,0,0-.38,1,5.81,5.81,0,0,1-.63,1.57,41.39,41.39,0,0,0-2.63,7.43,7.3,7.3,0,0,1-.56,1.76,39.92,39.92,0,0,0-1.34,4.9c-.83,3.73-1.48,5.32-3,7.2a41.24,41.24,0,0,0-4.11,5.63,7.45,7.45,0,0,1-1.19,1.66,1.27,1.27,0,0,0-.47.59,58.49,58.49,0,0,1-3.47,5.72c-.38.55-1.36,2.22-2.16,3.7-1.39,2.57-2,3.68-3.32,6.52-.35.71-1.06,2.25-1.63,3.42a101.59,101.59,0,0,0-4.41,10.81,23.44,23.44,0,0,1-1,2.71,69.07,69.07,0,0,0-2.13,7c-.15.71-.53,2.17-.83,3.28a94.59,94.59,0,0,0-2.37,11,47.14,47.14,0,0,1-.83,4.7c-.44,1.93-.5,4.12-.5,18.13,0,15.31,0,16.08.68,19.64.36,2,.8,4.41.95,5.26.47,2.74,1.72,8.23,1.92,8.54a20.37,20.37,0,0,1,.74,2.91c.33,1.45,1,3.87,1.46,5.35.88,2.79,1.09,3.38,2.28,6.54.38,1,.77,2.17.86,2.57a20.85,20.85,0,0,0,.85,2.27c.39.86,1.07,2.54,1.54,3.7,1.25,3.28,7.82,15.94,8.86,17.08a11.6,11.6,0,0,1,1.15,1.85c.45.77,1.16,2,1.6,2.59s1.37,2.08,2.08,3.13,1.69,2.48,2.16,3.1,1.21,1.66,1.66,2.28,1.09,1.51,1.48,2,.8,1,.92,1.14.5.71.8,1.2a3.16,3.16,0,0,0,.74.94,8.22,8.22,0,0,1,1.33,1.48c.65.82,2.19,2.65,3.41,4s2.6,3,3.05,3.64a3.89,3.89,0,0,0,1.06,1.11A8.48,8.48,0,0,1,376,425c.77,1,1.69,2,2,2.39,4.27,4.39,8.12,8.2,14.63,14.46,7,6.69,8.12,7.91,11.05,11.87,5.07,6.92,7.7,10.62,9.45,13.38.53.85,1.45,2.25,2,3.07,3.17,4.53,10,17.05,10.9,19.84a7.79,7.79,0,0,0,.71,1.74,8.32,8.32,0,0,1,.83,1.85,18.68,18.68,0,0,0,1,2.39,3.6,3.6,0,0,1,.47,1.48,6.73,6.73,0,0,0,.57,2,31.59,31.59,0,0,1,1.06,3.79c.27,1.34.68,2.93.89,3.56.5,1.33,1.3,8.59,1.39,12.09.06,2.79-.86,11.56-1.3,12.33-.15.31-.59,1.51-1,2.7a34.09,34.09,0,0,1-2.22,5.89c-.12.15-.8,1.31-1.48,2.57a20.63,20.63,0,0,1-4.3,5.75c-3.7,3.87-8.2,6.51-15.25,9a38.25,38.25,0,0,1-13.47,2.59c-3,0-3.82-.09-5.42-.65a5.79,5.79,0,0,1-2.17-1.2c-.65-1.2-2.72-1.34-3.08-.23s5.16,6.61,8.71,8.71c8.12,4.84,21.24,6.86,31.48,4.9a34.26,34.26,0,0,1,3.71-.54,17.81,17.81,0,0,0,3.2-.71,20.7,20.7,0,0,1,2.78-.72,55.85,55.85,0,0,0,9.51-3.84,6.18,6.18,0,0,1,1.71-.94,4.66,4.66,0,0,0,1.66-1.11c.65-.71.68-.85.27-1.28a4.33,4.33,0,0,0-1.36-.82c-.54-.2-1.54-.69-2.25-1.06l-1.31-.74.68-.51c.51-.4,1.16-.51,2.79-.51a19.39,19.39,0,0,0,3.82-.43c2-.48,3.94-.57,4.2-.14.09.14-.56.94-1.42,1.76-1.86,1.8-2.52,2.76-2,3.08a48,48,0,0,0,7.91,1,60,60,0,0,0,11.19-.74,62.18,62.18,0,0,0,15.7-5.21,39.11,39.11,0,0,0,13.35-10.19,30.64,30.64,0,0,0,7-12.64c1.16-4,1.13-10.9,0-16.79a68.12,68.12,0,0,0-2.67-8.54,7.32,7.32,0,0,1-.59-1.42c-.21-.6-.71-1.71-1.07-2.45a12.91,12.91,0,0,1-.71-1.48c0-.2-3.49-6.43-4.29-7.68-1.51-2.4-3.77-5.58-5.87-8.37-4.09-5.47-5.06-6.69-6.6-8.31-.83-.89-2.4-2.65-3.47-3.93s-2.34-2.79-2.81-3.28-1.57-1.7-2.43-2.64-1.78-1.88-2-2.08c-.57-.43-1.25-.46-1.25-.06A16.56,16.56,0,0,0,473,472a2.11,2.11,0,0,1,.47.94,4.11,4.11,0,0,0,.92,1.59,3.54,3.54,0,0,1,.71,1.09,40.39,40.39,0,0,0,1.78,3.73,37.15,37.15,0,0,1,1.77,3.81,1,1,0,0,0,.42.65,3,3,0,0,1,.62,1.4,8.18,8.18,0,0,0,.68,1.91A57.35,57.35,0,0,1,483,493.9a7.07,7.07,0,0,0,.68,1.71,4.44,4.44,0,0,1,.5,1.34c.12.54.53,2.3.92,3.9,2,8.19,2.25,18.9.53,25.56-.23.94-.62,2.42-.83,3.27a41.67,41.67,0,0,1-2.81,7.11,10.11,10.11,0,0,0-.74,1.63,39,39,0,0,1-3.73,5.49,8,8,0,0,0-1.25,1.48,16.23,16.23,0,0,1-2.31,2.39c-.74.63-1.68,1.4-2.07,1.77a2.56,2.56,0,0,1-1,.62,5.53,5.53,0,0,0-1.33.94c-1.07.91-3.2,2-7.34,3.76-2.29,1-4.89,1.25-5.48.6-.36-.43-.3-.57.38-1.2a6.27,6.27,0,0,0,1.24-1.54c.24-.45.8-1.3,1.22-1.9,1.18-1.65,3.38-6,3.38-6.63a5.32,5.32,0,0,1,.47-1.66c.8-1.79,1.24-4,1.63-8a23.4,23.4,0,0,0-.3-7.92,41.63,41.63,0,0,0-2.46-9.73A78,78,0,0,0,454,500c-.8-1.22-1.69-2.59-1.95-3a58.59,58.59,0,0,0-3.88-5.2c-.74-.92-1.63-2.08-2-2.59-.65-.92-2.22-2.77-4.85-5.84-.8-.88-1.78-2-2.23-2.56s-1.83-2-3.05-3.19-3.28-3.36-4.59-4.7c-2.9-3-22.48-21.91-31.42-30.31-3.58-3.36-8.17-7.8-10.19-9.85s-5-5-6.51-6.54-3.65-3.79-4.68-5-2.49-2.82-3.26-3.67a22.91,22.91,0,0,1-1.66-2c-.18-.26-1-1.25-1.78-2.19a90.88,90.88,0,0,1-7.73-10.08c-.71-1-1.89-2.68-2.63-3.7a11.23,11.23,0,0,1-1.36-2.16,2.93,2.93,0,0,0-.66-1.11c-1.09-1.34-7.34-12.67-7.34-13.32a4,4,0,0,0-.56-1,123.42,123.42,0,0,1-5.42-12.44c-2.64-6.89-5.54-17.13-6.16-21.77a14.87,14.87,0,0,0-.63-2.91,28,28,0,0,1-.71-4.27c-.26-2.07-.59-4.49-.77-5.35-.77-3.76-.77-24.62,0-27.89.18-.71.45-2.71.63-4.41A159.62,159.62,0,0,1,342.84,283c.24-.63.92-2.67,1.54-4.55a33.93,33.93,0,0,1,1.3-3.7,7.63,7.63,0,0,0,.68-1.85,29.56,29.56,0,0,1,1.6-4.13c.68-1.42,1.51-3.27,1.87-4.13s1.51-3.16,2.55-5.09a40.67,40.67,0,0,0,1.89-3.82,1.35,1.35,0,0,1,.42-.74,37.08,37.08,0,0,0,2.13-3.7c1.72-3.21,3.76-5.86,4.29-5.58a72.76,72.76,0,0,1,.24,8.91c0,9.79.42,18.42,1.07,21.83.23,1.26.62,4.33.86,6.86s.53,4.79.65,5,.5,2.39.89,4.7a155.59,155.59,0,0,0,4.08,17.7c.24.71.77,2.42,1.19,3.85s1,3.13,1.24,3.84.65,2,.89,2.82a74.29,74.29,0,0,0,3,7.62c.56,1.29,1.28,3,1.57,3.85s1.16,2.76,1.87,4.21,1.45,3,1.57,3.42a5.53,5.53,0,0,0,.74,1.42,5.69,5.69,0,0,1,.74,1.42A16.88,16.88,0,0,0,383,345.8c.59,1,1.45,2.57,1.9,3.42s1.48,2.7,2.31,4.13,1.86,3.18,2.31,4c.83,1.45,4.23,6.72,5.33,8.26.32.45,2,2.87,3.67,5.32a60.94,60.94,0,0,0,5.15,7,2.77,2.77,0,0,1,.65,1c0,.37,4.71,6.32,7.35,9.28,1.69,1.91,2.37,1.74,5-1.05a11.94,11.94,0,0,0,2.14-2.79,37.66,37.66,0,0,0-1.42-6.18A93.65,93.65,0,0,1,415,367.29a3.39,3.39,0,0,0-.33-1.33c-.35-.63-1.54-7-2.19-11.67a36.79,36.79,0,0,0-.89-4.56,36.23,36.23,0,0,1-.74-4.64c-.15-1.73-.41-4.21-.59-5.55-.74-6.29-.89-7.91-1.19-13.23-.74-13.33-.86-18.31-.56-23.91.68-12.95,1.19-19.42,2-25.34.89-6.37,2.2-13.89,2.49-14.66a29.8,29.8,0,0,0,.74-3.41c.3-1.65,1.1-5,1.81-7.54s1.36-5.1,1.51-5.75a8.86,8.86,0,0,1,.65-2,8.4,8.4,0,0,0,.62-1.79,17.12,17.12,0,0,1,.74-2.42c.3-.8.71-1.93.86-2.56a62.45,62.45,0,0,1,2.55-7,3.38,3.38,0,0,0,.47-1.3c0-.52,2.82-7,5.22-12a55.08,55.08,0,0,1,2.93-5.66c.35-.66,1.27-2.25,2-3.59,3.32-6,8.71-14.35,11.35-17.51a20.85,20.85,0,0,0,1.59-2.27,6.07,6.07,0,0,1,1.25-1.51,7.58,7.58,0,0,0,1.33-1.62c.42-.71.89-1.28,1-1.28a3.91,3.91,0,0,0,1.12-1.37c1-1.54,9.75-10.39,13-13.15,1.19-1,2.91-2.53,3.8-3.36a10.9,10.9,0,0,1,1.86-1.48,11.12,11.12,0,0,0,2-1.37,14.36,14.36,0,0,1,2.66-1.73,3.6,3.6,0,0,0,1.3-.77c1-1.17,1.16.43.24,2.73-.32.86-.8,1.94-1,2.42a57.87,57.87,0,0,0-2.63,6.41,15.58,15.58,0,0,1-.83,2.13,8.94,8.94,0,0,0-.68,2,6.46,6.46,0,0,1-.74,2,10.87,10.87,0,0,0-1,2.41c-.24.86-.86,2.65-1.39,4-.86,2.22-1.42,4-2.82,8.68a12,12,0,0,1-.8,2.22c-.65,1.17-4.91,16.79-6.3,23.11-.6,2.65-1.25,5.47-1.48,6.27a19.12,19.12,0,0,0-.6,3.41c-.12,1.08-.44,3.16-.74,4.58-1.54,7.21-2.1,22.06-1.09,28.58.29,1.79.71,4,1,4.84s.66,2.45.89,3.56c1.13,5.41,3.65,15.31,5.93,23.05.38,1.4.91,3.28,1.15,4.16s.68,2.36,1,3.27c.71,2.05,2,6.55,2.55,8.66.2.85.68,2.33,1,3.27a47.83,47.83,0,0,1,2.73,11,18.78,18.78,0,0,1,0,5.7c-.18,1.59-.48,4-.65,5.32a25.11,25.11,0,0,1-1,4.44,13.25,13.25,0,0,0-.71,2.65,3.73,3.73,0,0,1-.42,1.42c-.23.43-1,2.36-1.66,4.33a38.69,38.69,0,0,1-1.77,4.38,7.56,7.56,0,0,0-.74,1.71c-.18.79-1.13,2.73-5.81,12-.95,1.93-1.74,3.59-1.74,3.73a3.15,3.15,0,0,1-.51.91c-.59.8-4.23,8.08-5.33,10.67-.38.94-.83,2-1,2.28a51.67,51.67,0,0,0-2.28,6.26c-.53,2-.65,7.89-.15,9,.72,1.68,4.3,4.64,6.28,5.23a4.29,4.29,0,0,1,1.34.74,11.47,11.47,0,0,0,2.66,1.26,21.89,21.89,0,0,1,3,1.28,8.22,8.22,0,0,0,1.9.71,13.4,13.4,0,0,1,2.4.88,8.32,8.32,0,0,0,1.75.68c.82,0,5.53,2.45,6.54,3.42,2.61,2.5,3.08,8.82.95,12.67-.71,1.28-.77,1.7-.77,4.41,0,3.47.29,4.24,2.31,6.63a24.74,24.74,0,0,0,7.11,5.32c1.54.57,1.63,1,1.74,7,.09,4.55.12,4.95.92,6.8a20.56,20.56,0,0,0,1.54,3c.74,1.14,2.43,2.54,3.08,2.54a4.2,4.2,0,0,1,1.31.54,10.73,10.73,0,0,0,3.13.85c1.22.2,3.83.54,5.75.83l3.55.48.83,1.31c1.37,2.14,1.78,4.93,1.72,12a41.67,41.67,0,0,0,.59,9.36,25.46,25.46,0,0,0,5.07,11.56,32.56,32.56,0,0,0,6.45,5.63c5.19,2.65,5.39,2.73,8.3,3.05a54.5,54.5,0,0,0,12-.49c1.16-.22,3.41-.79,5-1.28s3.64-1,4.44-1.25a23.7,23.7,0,0,0,3.26-1.14l3.25-1.34c4.65-1.82,15.94-7.51,17.48-8.79a23.67,23.67,0,0,1,2.84-1.62c1.22-.63,3.79-2.22,5.69-3.53s3.82-2.59,4.26-2.85,1.42-.88,2.17-1.37,1.71-1.08,2.19-1.36,1.51-1,2.37-1.65,1.92-1.4,2.42-1.71c2.08-1.22,7.41-4.67,7.82-5a24,24,0,0,1,2.37-1.51,29.31,29.31,0,0,0,4-2.67,7.67,7.67,0,0,1,1.33-.74,9.52,9.52,0,0,0,1.6-1c.54-.46,2.52-1.59,11.79-6.75a12.93,12.93,0,0,1,2.52-1.19,3.24,3.24,0,0,0,1.18-.57,6.73,6.73,0,0,1,1.54-.74,8.14,8.14,0,0,0,1.75-.8,15.23,15.23,0,0,1,2.81-1.08c1-.28,2.94-.88,4.33-1.37,3.85-1.33,7.11-1.76,13.47-1.82l5.63-.05,4,1.93c5.12,2.51,6.69,3.42,8.05,4.7s4.33,6.09,7.23,11.72c.62,1.17,1.21,2.34,1.33,2.57s1.25,2.42,2.46,4.84c2,4,3.17,6.51,5.42,11.81,1,2.3,2.13,4.92,2.61,6,.21.46.65,1.63,1,2.57s1.68,4.72,3,8.39,2.6,7.46,2.84,8.4.68,2.53,1,3.56c2.51,8.25,3.88,15.88,4.79,26.9a81.37,81.37,0,0,1-.44,15.37c-.24,1.7-.56,4.41-.77,6a50.15,50.15,0,0,1-.86,5.13c-.32,1.22-.65,3-.77,3.81a9.13,9.13,0,0,1-.59,2.28,6.86,6.86,0,0,0-.56,1.85c-.36,1.79-3.47,11.55-4.06,12.72a4.79,4.79,0,0,0-.56,1.37c0,.71-2.64,7-4.74,11.24-.77,1.57-1.51,3.16-1.63,3.56a8.32,8.32,0,0,1-.74,1.56c-.62,1-4.24,7.6-5.27,9.68-.42.77-1.13,2-1.57,2.62a5.67,5.67,0,0,0-.86,1.45,6,6,0,0,1-1,1.51,18.6,18.6,0,0,0-1.45,2.19,20.87,20.87,0,0,1-1.45,2.14c-.51.65-1.36,1.9-1.93,2.76-1.09,1.68-2.28,3.36-3.79,5.38-.53.68-1.69,2.3-2.58,3.61s-2.42,3.39-3.4,4.67c-3.32,4.38-4.56,6.12-5.07,7a15.92,15.92,0,0,1-1.45,2,25.3,25.3,0,0,0-3.11,4.61,1.14,1.14,0,0,1-.44.65,25.79,25.79,0,0,0-2.81,3.84,18.43,18.43,0,0,1-1.1,1.77,185.36,185.36,0,0,0-10.07,17.16l-1.84,3.42c-.5.82-2.4,4.75-2.4,5a3.7,3.7,0,0,1-.56,1,7.37,7.37,0,0,0-.89,1.93,3.28,3.28,0,0,1-.62,1.37,5.84,5.84,0,0,0-.74,1.65,13.12,13.12,0,0,1-.95,2.14,12.61,12.61,0,0,0-.83,2,31.14,31.14,0,0,1-2.22,5.46,9.33,9.33,0,0,0-.74,2,8.22,8.22,0,0,1-.68,1.85,13.34,13.34,0,0,0-.83,2.27c-.21.77-.89,2.91-1.54,4.7-2.34,6.6-2.57,7.37-5.06,17.93-.33,1.34-.74,3.3-1,4.41a13.73,13.73,0,0,1-.62,2.54,17.23,17.23,0,0,0-.86,3.07c-.3,1.39-.74,3.07-1,3.76a21.82,21.82,0,0,0-.74,3.19c-.18,1.08-.53,3-.77,4.38-.95,5.12-.86,31.17.15,37.57.15,1,.41,3.44.59,5.41a44.29,44.29,0,0,0,.77,5.26c.24.94.68,3,1,4.7a44,44,0,0,0,1.83,7.26c.3.94.77,2.28,1,3a51.73,51.73,0,0,0,3.88,9.25c.27.45,1,1.74,1.57,2.85a41.92,41.92,0,0,0,3,4.83c.36.46,1.13,1.57,1.72,2.45,2.81,4.16,6,7.54,11.61,12.64a67.19,67.19,0,0,0,7.46,6,26.86,26.86,0,0,0,3.65,2.42,1.76,1.76,0,0,1,.91.59,5.43,5.43,0,0,0,1.46,1c.47.23,1.48.77,2.22,1.22,1.15.72,2.81,1.6,7.25,3.82,1.78.88,5.39,2.45,7.41,3.16,1.15.43,2.66,1,3.4,1.31,1.57.62,4.27,1.48,7.56,2.42,1.3.37,3.49,1,4.88,1.42a133.08,133.08,0,0,0,19.55,4.13c2.19.31,4.47.71,5,.88,1.6.48,20.14.68,23.64.26a27.35,27.35,0,0,0,3.35-.57,20.79,20.79,0,0,1,3.7-.6,20,20,0,0,0,4.41-.83,13.17,13.17,0,0,1,3.35-.68,8,8,0,0,0,3-.63,11.36,11.36,0,0,1,2.69-.88,8.16,8.16,0,0,0,2.4-.77,5.09,5.09,0,0,1,1.69-.71c1.51-.4,1.81-.77.86-1a4.58,4.58,0,0,0-3.14.56,9.3,9.3,0,0,1-2.46.8,8.24,8.24,0,0,0-2.43.74,9.51,9.51,0,0,1-2.72.6,17.29,17.29,0,0,0-3.5.82c-1.36.63-6,1.06-14.36,1.31a87.13,87.13,0,0,1-12.44-.42c-3.82-.32-7.43-.74-8-.89s-2.31-.48-3.85-.74a142.12,142.12,0,0,1-25.61-6.71c-.8-.32-2-.71-2.67-.89a5.54,5.54,0,0,1-1.9-.82,2.56,2.56,0,0,0-1-.51c-.62,0-9.42-4.13-11.35-5.33l-1.92-1.22c-.42-.26-1.22-.71-1.78-1a104.07,104.07,0,0,1-11-8c-1.95-1.71-6.1-5.73-8.56-8.23-.44-.48-1.06-1.25-1.39-1.71a16.63,16.63,0,0,0-1.36-1.79,61.13,61.13,0,0,1-5.48-8,56.1,56.1,0,0,1-5.42-11.72,18.94,18.94,0,0,0-1-2.42,17.23,17.23,0,0,1-.77-2.51,12,12,0,0,0-.62-2.19,82,82,0,0,1-1.95-8.48c-.48-2.51-.33-4.22.68-7.83,1.84-6.4,3.67-10.59,8.26-18.67a56,56,0,0,1,8.59-10.62A72.25,72.25,0,0,1,654,757.22c.74-.43,1.66-1,2.08-1.25s1.42-.83,2.22-1.26,2.54-1.33,3.85-2,3-1.56,3.7-1.88,3.23-1.48,5.54-2.56,4.35-2,4.47-2a5.51,5.51,0,0,0,1.33-.69,10,10,0,0,1,1.72-.88,19.13,19.13,0,0,0,2.19-.85c.83-.37,3.56-1.57,6.07-2.71,8.65-3.84,18.16-8.34,19-9,.24-.17,1.63-1,3-1.74,3.76-2,4.86-2.65,7.58-4.38,1.36-.86,3-1.82,3.64-2.14a6.58,6.58,0,0,0,1.37-.85,10.12,10.12,0,0,1,1.54-1.22c3.7-2.59,6.1-4.42,9.3-7,1.95-1.59,4-3.27,4.59-3.72,1.83-1.48,8.38-7.86,11.43-11.13a136.55,136.55,0,0,0,10.07-12.19,14.74,14.74,0,0,1,1.27-1.7,3,3,0,0,0,.65-1.17,2.35,2.35,0,0,1,.74-1,2.63,2.63,0,0,0,.74-.88,17,17,0,0,1,2-3.07,19.77,19.77,0,0,0,1.27-2.08c.42-.74,1.84-3.25,3.17-5.55,2.55-4.44,6.69-12.55,7.08-13.75a23,23,0,0,1,1-2.42,39.86,39.86,0,0,0,2.37-5.89,3.52,3.52,0,0,1,.47-1.23,12.39,12.39,0,0,0,.86-2.13c.24-.71.92-2.76,1.57-4.55s1.39-4.1,1.66-5.13a19,19,0,0,1,.8-2.53,24.77,24.77,0,0,0,.74-3,18.67,18.67,0,0,1,.74-2.79,16.29,16.29,0,0,0,.74-3.16,38.7,38.7,0,0,1,.86-4,42.28,42.28,0,0,0,.86-4.7c.26-1.79.65-4.61.88-6.26a164.35,164.35,0,0,0,1.57-22.43l.15-9.48,1.6-2.84c.89-1.6,1.6-2.94,1.6-3s.65-1.45,1.45-3c1.66-3.33,3.73-7.71,5.42-11.55.65-1.48,1.51-3.36,1.9-4.13a8.7,8.7,0,0,0,.71-1.79,3.74,3.74,0,0,1,.47-1.23,21.32,21.32,0,0,0,1-2.76c1.12-4,2.58-7.28,3.82-8.79.41-.49,1.1-1.34,1.51-1.91s1.42-1.91,2.22-3,2.22-2.93,3.11-4.18,2.1-2.85,2.7-3.56,1.83-2.42,2.81-3.82,2.34-3.38,3.08-4.38,1.6-2.28,1.92-2.79.83-1.17,1.07-1.45a5.54,5.54,0,0,0,.83-1.42,3.93,3.93,0,0,1,.83-1.29,6.88,6.88,0,0,0,1.13-1.65,6.82,6.82,0,0,1,1.15-1.68,18.67,18.67,0,0,0,2-3.1,27.56,27.56,0,0,1,1.75-2.9,63.36,63.36,0,0,0,3.85-6.78,1.17,1.17,0,0,1,.39-.59c.38-.29,4.62-8.29,6.22-11.7,1.83-4,3.64-8.14,4.2-9.88a11.87,11.87,0,0,1,.83-1.85,6,6,0,0,0,.62-1.59,7.92,7.92,0,0,1,.63-1.85,110.4,110.4,0,0,0,3.85-12.87c.23-1.11.65-2.56.85-3.27a28,28,0,0,0,.77-3.7c.18-1.34.45-3.13.6-4s.44-3,.62-4.69c.44-3.93.15-15.72-.45-18.36-.2-1-.56-3-.77-4.41a28.86,28.86,0,0,0-.88-4.27c-.33-.94-.89-2.79-1.31-4.13s-.92-3.08-1.18-3.84-.83-2.45-1.36-3.7-1.13-2.85-1.37-3.53a13.84,13.84,0,0,0-.94-2.17,7,7,0,0,1-.77-1.68,7.08,7.08,0,0,0-1-1.85,3.7,3.7,0,0,1-.71-1.51.78.78,0,0,0-.3-.65,12.14,12.14,0,0,1-1.36-2.19,27.39,27.39,0,0,0-1.6-2.82,6.81,6.81,0,0,1-.89-1.57,128.78,128.78,0,0,0-8.5-12.38,2.93,2.93,0,0,1-.68-1,5.6,5.6,0,0,0-1-1.48l-2.31-2.76a20,20,0,0,0-1.89-2.08,8.67,8.67,0,0,1-1.07-1.25c-.27-.43-2-2.37-3.88-4.3s-3.73-3.87-4.15-4.33c-.65-.71-2.75-2.62-7.22-6.6-.48-.43-1.69-1.42-2.67-2.19a25.67,25.67,0,0,1-2.22-1.88c-.86-.94-6.07-4.78-13.18-9.68-1.3-.91-2.75-1.93-3.26-2.3a36.82,36.82,0,0,0-3.4-2.08,23.73,23.73,0,0,1-3.17-1.94,64.83,64.83,0,0,0-7.35-4.13,20.9,20.9,0,0,1-2.28-1.25c-1.3-.88-8.11-4.44-12.08-6.32-2-1-4-1.9-4.3-2.07-.62-.32-5.09-2.4-10.89-5a38.6,38.6,0,0,0-3.77-1.6,7.55,7.55,0,0,1-1.68-.71,34.06,34.06,0,0,0-5.78-2.42,1.13,1.13,0,0,1-.8-.4,3.09,3.09,0,0,0-1.3-.62,13.33,13.33,0,0,1-2.55-1,8.74,8.74,0,0,0-2-.82,27.92,27.92,0,0,1-4.89-2,5,5,0,0,0-1.51-.57,39.64,39.64,0,0,1-5.69-2.27c-.65-.32-2.45-1-4-1.54-2.58-.91-6.43-2.36-7.85-3-.33-.14-1.19-.45-1.93-.68s-2.46-.91-3.85-1.48-3.11-1.23-3.85-1.42a18.52,18.52,0,0,1-2.52-1,5,5,0,0,0-1.62-.6,11.27,11.27,0,0,1-2.23-.85,9.71,9.71,0,0,0-2.31-.86,5,5,0,0,1-1.6-.57,5.44,5.44,0,0,0-1.54-.57,5.92,5.92,0,0,1-1.65-.68,12.41,12.41,0,0,0-2.7-1.05,15.1,15.1,0,0,1-2.75-1,5.79,5.79,0,0,0-1.84-.65,1,1,0,0,1-.68-.23,22.12,22.12,0,0,0-3.35-1.48,37.46,37.46,0,0,1-3.79-1.62,2.41,2.41,0,0,0-1-.37,33.15,33.15,0,0,1-4-1.54c-2-.85-3.91-1.62-4.33-1.74a6.13,6.13,0,0,1-1.33-.57,13.32,13.32,0,0,0-1.78-.71,56.91,56.91,0,0,1-5.62-2.27c-1.22-.54-2.49-1-5.72-2.14a16.13,16.13,0,0,1-2.22-.94,25.8,25.8,0,0,0-3.17-1.31c-1.54-.57-3.5-1.36-4.3-1.73a7.12,7.12,0,0,0-2.07-.72,18.86,18.86,0,0,1-3.26-1.16c-2.45-1.06-4.17-1.71-8.41-3.13a11,11,0,0,1-2-.83,38.24,38.24,0,0,0-3.88-1.56c-2-.69-4.62-1.68-5.93-2.22a31,31,0,0,0-3.25-1.17c-.48-.12-2.05-.77-3.53-1.42s-3.26-1.4-4-1.66c-1.8-.59-4.91-1.85-6.39-2.5a6.93,6.93,0,0,0-1.6-.57,8.32,8.32,0,0,1-1.75-.68,39.32,39.32,0,0,0-4.89-2.17c-1.39,0-33.91-15.34-36.25-17.07a2.63,2.63,0,0,0-1.09-.57,1.82,1.82,0,0,1-.89-.57,4.6,4.6,0,0,0-1.6-.88,5.54,5.54,0,0,1-1.51-.69c-.51-.4-3.85-2.39-5.92-3.53a10.33,10.33,0,0,1-1.63-1,64.31,64.31,0,0,0-5.63-3.7c-1.57-.91-7.79-5.33-10.07-7.18-1.16-.91-2.55-2-3.11-2.39-1.51-1.08-10.46-9.7-12.88-12.41a65.25,65.25,0,0,1-7.29-9.08,44,44,0,0,1-3.67-6c-.42-.79-.86-1.62-1-1.85-.38-.59-2.1-4.27-2.4-5.12-.12-.4-.65-1.79-1.18-3.13-1.6-4.07-2.85-8.77-2.52-9.56.15-.4.27-.37.95.14a9.1,9.1,0,0,1,1.6,1.82c1.95,3,9.8,10.93,13.09,13.24a11.31,11.31,0,0,1,1.86,1.5,10.3,10.3,0,0,0,1.75,1.29l3.14,2.07a112.09,112.09,0,0,0,11.85,6.89c10.6,4.87,12.08,5.52,14.66,6.46,4,1.45,7.05,2.56,8.59,3.13.83.32,3,1.06,4.88,1.63s3.65,1.16,3.91,1.31a26.78,26.78,0,0,0,3.35.82,24.1,24.1,0,0,1,3.46.88,22.15,22.15,0,0,0,3.26.83,14.13,14.13,0,0,1,3,.8,7.32,7.32,0,0,0,2.08.48,27.4,27.4,0,0,1,3.82.74,42.28,42.28,0,0,0,4.5.85,41.12,41.12,0,0,1,4.62.83,34.14,34.14,0,0,0,4.74.71,43.62,43.62,0,0,1,4.5.6c2.37.45,11.55,1.17,20.23,1.54,5.92.25,9.83.34,26.5.74,12.95.28,27.43,1.19,33.32,2.07,2,.32,4.51.63,5.63.74a193.18,193.18,0,0,1,20.58,4c4.45,1.19,12.86,3.9,13.78,4.44a3.81,3.81,0,0,0,1.36.51,17,17,0,0,1,3.11,1.25c1.45.71,3.91,1.85,5.45,2.59a60,60,0,0,1,5.33,2.85c1.39.85,3.05,1.79,3.7,2.13a82,82,0,0,1,19.1,15.66c1,1.17,2,2.25,2.23,2.42a5.65,5.65,0,0,1,.88,1.14c.3.45,1.13,1.53,1.84,2.42s1.54,1.9,1.87,2.3c1,1.25,4.5,6.86,5.27,8.37a9.1,9.1,0,0,0,1,1.56,121.34,121.34,0,0,1,5.74,12.1c.21.63.95,2.45,1.63,4a34,34,0,0,1,1.21,3.19c0,.17.54,1.94,1.22,3.93a115.68,115.68,0,0,1,3.23,11.9c.74,3.53,1.68,5.89,2.31,5.78s.77-2.25.09-6c-.3-1.77-.66-4.13-.77-5.21a31.92,31.92,0,0,0-.8-4.13c-.3-1.16-.74-3.1-1-4.27a59.77,59.77,0,0,0-2.07-8,13.41,13.41,0,0,1-.75-2.25,56.47,56.47,0,0,0-3.1-8c-.6-1.34-1.28-2.94-1.52-3.53a12.79,12.79,0,0,0-1-2c-.3-.48-1.25-2.16-2.11-3.72a27.41,27.41,0,0,0-2.07-3.42,8.21,8.21,0,0,1-1-1.57,17.18,17.18,0,0,0-1.59-2.27c-.6-.71-1.49-1.85-2-2.56-3-4.5-10.16-11.76-16-16.26-7.52-5.78-17.33-11.41-23.43-13.46a12.15,12.15,0,0,1-1.92-.83,7.2,7.2,0,0,0-1.43-.62,13.81,13.81,0,0,1-1.62-.6c-5.1-2.19-19-6-25.77-7.06-1.45-.23-3.58-.63-4.74-.85a18.82,18.82,0,0,0-3.32-.46,9.52,9.52,0,0,1-2.51-.4,45,45,0,0,0-5.87-.74c-2.52-.17-5.33-.42-6.22-.57-5.48-.91-25.29-1.68-42.94-1.7-6.1,0-13.09-.15-15.55-.29l-9.48-.57c-2.75-.14-5.63-.43-6.37-.57s-3.73-.62-6.66-1c-5-.66-7-1-12.29-2-1.21-.26-3.17-.63-4.32-.83a13.15,13.15,0,0,1-3-.8,16.24,16.24,0,0,0-3.08-.77,20.55,20.55,0,0,1-3.14-.71,17,17,0,0,0-2.51-.68,22.66,22.66,0,0,1-3.08-.88c-.8-.29-3.08-1.06-5-1.65-7.14-2.25-14.9-5.13-17.32-6.46a34.14,34.14,0,0,0-3.71-1.71c-5.3-2.25-13.92-6.72-15.25-7.92-.24-.19-1.51-1.08-2.81-1.93-6.61-4.3-14.48-11.73-17.83-16.88-.5-.8-1.22-1.79-1.54-2.19a8.57,8.57,0,0,1-1-1.57,8.06,8.06,0,0,0-.92-1.59c-.59-.88-.5-1.6.48-2.85.5-.65.53-.85.2-1.22a1,1,0,0,0-1-.31,3.26,3.26,0,0,1-1.66-.37c-.95-.49-1.22-.49-2.55-.15ZM479,150.12c.29.31.29.74,0,1.9-.5,2-.71,2.39-1.84,3l-2.6,1.31a66.45,66.45,0,0,0-7,4c-.15.14-1,.71-2,1.31-6.48,4.18-16.38,13.29-21.53,19.84a52.9,52.9,0,0,1-4.32,5.23,1.17,1.17,0,0,0-.48.74,1.74,1.74,0,0,1-.59.86,115.38,115.38,0,0,0-7.35,10.53l-1.24,1.85a7.74,7.74,0,0,0-.74,1.36,22.66,22.66,0,0,1-1.57,2.85c-.77,1.23-2.52,4.38-3.88,7-3.38,6.63-3.73,7.37-4.77,9.82-.5,1.17-1.12,2.51-1.36,3a45.74,45.74,0,0,0-1.78,4.36c-.71,1.9-1.48,3.87-1.74,4.32a3.88,3.88,0,0,0-.45,1.34,6,6,0,0,1-.59,1.65,6.33,6.33,0,0,0-.59,1.54,23.29,23.29,0,0,1-.86,2.84c-.48,1.34-1.22,3.73-1.66,5.3s-1.1,3.93-1.48,5.26a94.38,94.38,0,0,0-2.4,10,29.71,29.71,0,0,1-.86,4,34.08,34.08,0,0,0-.74,3.93c-.15,1.33-.41,3-.59,3.84-.3,1.45-.45,2.5-1.51,11.36-1,8.62-1.22,12.92-1.25,25.93,0,12.83.36,22.23,1.13,26.75.24,1.43.56,4.3.74,6.41a43.9,43.9,0,0,0,.74,5.29,32.33,32.33,0,0,1,.74,4.27,36.42,36.42,0,0,0,.77,4.36,43.1,43.1,0,0,1,.89,4.66,17.37,17.37,0,0,0,.71,3.5,11.34,11.34,0,0,1,.74,2.91,21,21,0,0,0,.77,3.3c.36.71.12,2-.27,1.42a5,5,0,0,0-1-.74c-.8-.51-6.07-7.77-7.35-10.16A17.15,17.15,0,0,0,398.4,360a32.32,32.32,0,0,1-3.08-5,2.9,2.9,0,0,0-.77-1.11,1.77,1.77,0,0,1-.59-.83,4.1,4.1,0,0,0-.68-1.31A179.23,179.23,0,0,1,382.59,331c-.48-1-1.16-2.56-1.54-3.41a25.34,25.34,0,0,1-1.16-3,52.84,52.84,0,0,0-2.19-6,63.52,63.52,0,0,1-2.4-8.14c-.47-1.79-1-3.67-1.13-4.13a46,46,0,0,1-1.42-5.69c-.23-1.25-.68-3.3-1-4.56-1.25-5.15-2.82-17.07-3.59-27.32-.38-5.24-.18-25.28.3-27.33.18-.79.47-2.59.62-4a84.25,84.25,0,0,1,3-12.95c2.28-7.54,2.85-9,5.54-14.52.5-1,1.3-2.67,1.78-3.7a68.52,68.52,0,0,1,4.5-7.54c.32-.49,1.39-2,2.34-3.39a126.63,126.63,0,0,1,8.2-10.25,140.93,140.93,0,0,1,12.26-11.21c1.07-.8,2.52-1.91,3.26-2.48a46.6,46.6,0,0,1,5.15-3.38l2.85-1.74c4.41-2.73,15.67-7.88,18.92-8.68a10.59,10.59,0,0,0,1.93-.71,40.89,40.89,0,0,1,7-2.28c.89-.2,3.31-.83,5.39-1.39s5.54-1.26,7.7-1.6,4.62-.71,5.42-.82,3.49-.4,5.92-.57,4.92-.37,5.48-.43C478,149.66,478.6,149.72,479,150.12Zm2.66,15.68c.48,1.85,1.13,4.1,1.43,4.95s.94,2.54,1.36,3.7a74.19,74.19,0,0,0,5.89,11.64c.53.77,1.81,2.74,2.87,4.33,1.75,2.62,2.82,4,8.06,10.22,2.07,2.42,14.13,14,16.67,15.94,1.13.85,2.79,2.25,3.68,3a8.78,8.78,0,0,0,2,1.51,2.46,2.46,0,0,1,1,.71c.38.4,2.22,1.85,4.06,3.22l4.62,3.42c.68.48,1.65,1.16,2.13,1.48a20.26,20.26,0,0,1,2.93,2,14.37,14.37,0,0,0,1.69,1.14c1.12.59,10,6.34,11,7.17,1.21,1,.88,1.62-.77,1.62a9.17,9.17,0,0,1-2.46-.48c-1.87-.69-5.07-.91-12.89-.94-6.45,0-7.49.08-9.47.6a95,95,0,0,0-10.37,3.27c-.74.34-2.25,1-3.4,1.56a42.33,42.33,0,0,0-4.09,2.17c-1.1.68-2.82,1.62-3.79,2.08l-1.78.88-.86-.6a12.85,12.85,0,0,1-2.49-3.79c-.89-1.76-2-3.9-2.54-4.75-.95-1.68-3.85-7.54-3.85-7.83s-2-5.21-2.58-6.4c-.24-.54-.62-1.57-.86-2.28s-.8-2.36-1.3-3.7a85.82,85.82,0,0,1-2.85-9.53c-.26-1.11-.74-2.82-1-3.85s-.74-3.07-1-4.55-.56-3.16-.71-3.7a46.8,46.8,0,0,1-.77-4.81c-.27-2.11-.53-3.93-.59-4a43.61,43.61,0,0,1-.59-4.84c-.51-5.21-.6-19-.18-21.8.26-1.71.56-2.54.8-2.28C480.68,162.35,481.15,164,481.62,165.8Zm-5.33,11a176.69,176.69,0,0,0,1.07,20.72c.24,1.48.59,3.73.74,5s.5,3.24.74,4.41.65,3.27.92,4.7a16.92,16.92,0,0,0,.83,3.27,12.13,12.13,0,0,1,.71,2.42c.21.94.62,2.48.92,3.42,1.51,4.66,4,11.75,4.29,12.52,1.16,2.53,2.19,4.92,2.37,5.55.12.4.92,2,1.75,3.56,1.72,3.24,1.95,3.7,2.49,4.87.23.45.59,1.13.82,1.53s.75,1.34,1.16,2.14.95,1.73,1.18,2.13c.72,1.2.54,1.6-1.54,3.16-1.12.83-2.39,1.85-2.9,2.28s-1.8,1.59-3,2.59c-8.65,7.51-12.94,13.43-11.82,16.31a3.62,3.62,0,0,0,2.85,1.28c2,0,2.9-.48,5.24-2.88,1.24-1.28,2.69-2.73,3.26-3.21l4.41-4.1c1.89-1.74,3.49-3.19,3.58-3.19a18.71,18.71,0,0,0,2.11-1.71,9.08,9.08,0,0,1,2.34-1.7c.56,0,2.13,1.65,3.64,3.9a53.12,53.12,0,0,0,3.34,4.63,60.38,60.38,0,0,1,4.18,6.55c.18.4,1,1.71,1.72,2.9a25.74,25.74,0,0,1,1.36,2.34c0,.08,1,1.68,2.31,3.53s2.61,3.93,3,4.58,1.28,2,1.93,2.93,1.74,2.56,2.43,3.56a29.51,29.51,0,0,0,2.37,3.16,20.55,20.55,0,0,1,1.71,2.19c.33.46,1,1.37,1.51,2s1.54,2,2.31,3l1.34,1.91-1.57,1a10.61,10.61,0,0,1-2.94,1.25,5,5,0,0,0-1.83.6,7,7,0,0,1-2,.74c-1.89.49-5.8,1.71-7.64,2.42-1.3.49-8.11,2.51-10.78,3.16a28.55,28.55,0,0,0-5.74,2.11c-.36.31-.36.42,0,.85.53.63,2.78.4,6-.6a16.7,16.7,0,0,1,3-.71,25.27,25.27,0,0,0,4.06-1.17c1.86-.62,4-1.33,4.74-1.56a25.09,25.09,0,0,0,2.51-1,6.61,6.61,0,0,1,1.72-.57,11.38,11.38,0,0,0,2.46-1,11,11,0,0,1,2.4-1,3.55,3.55,0,0,0,1.39-.54,8.88,8.88,0,0,1,1.66-.74,5.68,5.68,0,0,0,1.45-.74c.95-.71,3.17-.74,3.56-.06.71,1.31.53,1.85-.89,2.65a14.78,14.78,0,0,1-2.52,1.14,21.55,21.55,0,0,0-2.49,1,6.45,6.45,0,0,1-2,.69,4.1,4.1,0,0,0-1.63.54,31.71,31.71,0,0,1-4.62,1.7c-2,.66-4,1.31-4.3,1.48a18,18,0,0,1-2.07.69c-.8.22-2.22.65-3.11,1a10,10,0,0,1-2.37.6,4.51,4.51,0,0,0-1.6.43,13.79,13.79,0,0,1-3,.88,20.53,20.53,0,0,0-2.9.86c-2.25,1.11-3.82.11-5.75-3.59a19.29,19.29,0,0,0-1.48-2.56,5.4,5.4,0,0,1-.68-1.57c-.18-.62-.92-2.87-1.66-5a28,28,0,0,1-1.33-4.7c0-1.56-.59-3.33-1.27-3.84-.83-.65-1.1-.48-1.1.77a95.13,95.13,0,0,0,1.81,12.47,17,17,0,0,1,.56,2.64,17.59,17.59,0,0,0,.86,3.16,19.15,19.15,0,0,1,.95,3.9c.09,1.23,0,1.43-.63,1.74a18.55,18.55,0,0,1-5.83,1.82,8.76,8.76,0,0,0-2.46.54c0,.26,1.75.74,4.18,1.17l2,.34-.35.83a5.38,5.38,0,0,1-1.4,1.62,19.7,19.7,0,0,1-7.1,3,3.43,3.43,0,0,0-2.49,1c-.47.49-.77.91-.68,1a37.1,37.1,0,0,0,4.29.31c3.88.14,5.27.4,5.07.91a37.3,37.3,0,0,1-5.57,4.38c-.89.57-2,1.26-2.37,1.54a12.18,12.18,0,0,1-1.54.91c-1.13.54-1.07,1.17.09,1.17,1.86,0,7.67-2,10.63-3.67.24-.14,1.57-.8,3-1.45s2.58-1.31,2.67-1.4,1.09-.77,2.22-1.51a19.47,19.47,0,0,0,2.49-1.76c.53-.6,2.1-.63,2.1,0s-1.9,2.76-4.65,5.43a10.27,10.27,0,0,0-2.16,2.51c0,.54,1.06.57,2.07,0,.42-.23,1.33-.69,2.07-1a6.74,6.74,0,0,0,1.48-.82,12,12,0,0,1,1.78-1.2c3.53-2,9-6.83,12.74-11.16a15.25,15.25,0,0,1,2.13-2.19c.15,0,.38.32.59.71.27.57.21.83-.24,1.48a15.37,15.37,0,0,0-1.06,1.88c-.74,1.54-3.7,5.81-4.15,5.95-.68.23.09.8.86.63a18.15,18.15,0,0,0,3.73-1.82c.21-.15,1.16-.86,2.14-1.54a35.8,35.8,0,0,0,6.51-6.6A32.15,32.15,0,0,0,529,326c.71-1.82,2-3,2.43-2.28a3.39,3.39,0,0,1,.12,1.66,21,21,0,0,1-1.81,5.23c-.44.43-.12.71.65.51,1.19-.28,3.7-2.78,5.51-5.55a10.77,10.77,0,0,0,2-4.61c.48-2.42,1-3.5,2-3.78.5-.17.92.11,2.13,1.45a18.46,18.46,0,0,1,1.81,2.08,22.12,22.12,0,0,0,1.77,2c.83.88,2.26,2.42,3.14,3.41s2.37,2.62,3.26,3.56,1.84,2,2.08,2.25.77.85,1.18,1.28,2.07,2.14,3.67,3.87,3.47,3.67,4.15,4.3,2.22,2.25,3.43,3.53,4,4.07,6.22,6.23,4.36,4.3,4.8,4.76,1.93,1.9,3.32,3.24,5.51,5.35,9.12,8.94,7.94,7.8,9.57,9.42c3.64,3.59,12.35,12.35,15.13,15.23,1.13,1.17,2.87,3,3.88,4s2.31,2.45,2.87,3.19a11.25,11.25,0,0,0,1.45,1.57,23.43,23.43,0,0,1,2.4,2.5c2.55,2.88,4.45,4.95,5.9,6.49a27.8,27.8,0,0,1,1.92,2.19c.89,1.11,3.53,4.16,4.21,4.84.26.26.86,1,1.33,1.57s1.22,1.53,1.63,2,1.1,1.31,1.51,1.85,1.36,1.68,2.07,2.53c2.52,3.08,5.87,7.4,6.22,8a16.24,16.24,0,0,0,1.48,1.93c1.19,1.4,3.5,4.56,5.25,7.21.59.91,1.57,2.27,2.13,3a24.21,24.21,0,0,1,2,3.14l.95,1.76-.74.2a1.78,1.78,0,0,1-1.24-.17,20.43,20.43,0,0,0-5.1-2c-1.74-.46-2.49-.49-6.81-.26a48.59,48.59,0,0,0-10.34,1.37,67.3,67.3,0,0,0-13.59,4.89,18.94,18.94,0,0,1-2.49,1.11,17,17,0,0,0-2.4,1.26,23.33,23.33,0,0,1-2.84,1.56c-1,.43-6.72,3.64-8.8,5-.94.63-3.25,2.08-5.12,3.25s-4.53,2.87-5.92,3.81-3.5,2.28-4.71,3-2.9,1.88-3.76,2.53a10.18,10.18,0,0,1-1.81,1.23,5.22,5.22,0,0,0-1.27.85,4.3,4.3,0,0,1-1.31.85,3.52,3.52,0,0,0-1.09.74,8.88,8.88,0,0,1-1.42,1.09c-.33.17-1.9,1.16-3.5,2.19-3.91,2.53-6.84,4.35-8,4.89a4.79,4.79,0,0,0-1.27.89,4.54,4.54,0,0,1-1.45.76,9.83,9.83,0,0,0-2,1c-.83.6-7,3.67-10.81,5.35a70.25,70.25,0,0,1-10.49,3.9,14.12,14.12,0,0,0-2.22.69,13.2,13.2,0,0,1-3,.71c-1.22.2-3,.54-4,.79a23.06,23.06,0,0,1-5.48.46l-3.7,0-3.26-1.54a21.44,21.44,0,0,1-7-4.7c-2.46-2.47-3.64-4.58-5.09-9l-.89-2.71-.09-8.14c-.09-7.82-.12-8.22-.86-10.36a21.08,21.08,0,0,1-.74-2.53,7.75,7.75,0,0,0-1.1-1.82c-1.56-2.22-2.93-2.79-7.19-3s-8.27-1.31-9.63-2.59c-1.54-1.48-2-2.79-2.16-6-.18-3.82,0-4.16,2.81-4.64a17.1,17.1,0,0,0,2.91-.74c1.33-.57,4.82-1.8,6.51-2.28a77.59,77.59,0,0,0,8.74-3.81,11.34,11.34,0,0,1,2.52-.74,13.7,13.7,0,0,0,3-.86,7.81,7.81,0,0,1,2-.68,9.94,9.94,0,0,0,2.37-.83c1-.45,2.43-1.11,3.23-1.45,1.54-.68,2.87-2,2.87-2.85s-1.45-2-2.22-2a2.65,2.65,0,0,0-1.39.77c-2.52,2.51-3.17,3-4.24,3.47a6.15,6.15,0,0,0-1.6,1,1.37,1.37,0,0,1-1,.48,8.08,8.08,0,0,0-2.11.69,13.09,13.09,0,0,1-3,.88,16,16,0,0,0-2.84.71,21,21,0,0,1-4,.83,34.29,34.29,0,0,0-3.64.57,62.2,62.2,0,0,1-10.69.74c-3.65-.52-9.69-4.7-11.17-7.69-1-2-.89-3,.53-6.89,1.13-3.07,1.25-3.58,1.25-6.2a9.69,9.69,0,0,0-.48-3.84c-.26-.55-.77-1.74-1.12-2.65-1-2.51-2.7-3.82-8.62-6.63a30.61,30.61,0,0,0-3.17-1.23,14.84,14.84,0,0,1-2.49-1,2.42,2.42,0,0,0-1.06-.46,30.13,30.13,0,0,1-4.06-1.71,35.83,35.83,0,0,0-3.94-1.7,9.45,9.45,0,0,1-2.1-1.66L449.34,396v-2.33c0-2.62.48-4.36,2.67-9.59a153.27,153.27,0,0,1,6.78-14.15c2.28-4.5,4.18-8.25,4.18-8.34s.68-1.48,1.48-3.07a18.77,18.77,0,0,0,1.48-3.36,2.53,2.53,0,0,1,.59-1.2,7.2,7.2,0,0,0,1-2c.2-.68,1.15-3.27,2.07-5.78s1.95-5.61,2.25-6.86a31.29,31.29,0,0,1,.89-3.13,45.21,45.21,0,0,0,1.12-9.51,51.66,51.66,0,0,0-2.81-15.51,22.51,22.51,0,0,1-.71-2.7,5.15,5.15,0,0,0-.59-1.51,4.42,4.42,0,0,1-.59-1.62,13.4,13.4,0,0,0-.57-2.34c-1.12-3.56-2.07-6.66-2.54-8.34-.27-.94-.75-2.53-1-3.56-2.52-8.74-5.48-20.75-6.52-26.47-.32-1.79-.77-4-1-4.84-.63-2.64-.42-10.67.47-18.7.44-3.95,1-8,1.21-9.11s.57-3.21.77-4.78a23,23,0,0,1,.63-3.33,28.59,28.59,0,0,0,.85-4A152,152,0,0,1,465,204.05c.29-1,.71-2.61.89-3.55a33.42,33.42,0,0,1,.92-3.56c.68-2.22,1.36-4.67,1.89-6.95.21-.91,1.07-3.73,1.9-6.26s1.95-5.86,2.45-7.43c.89-2.7,2.46-5.83,3-5.83a46.87,46.87,0,0,1,.23,6.32Zm63.09,49.61a7.75,7.75,0,0,0,1.48.82c.56.29,1.83.91,2.81,1.46s2.19,1.16,2.73,1.39,1.62.85,2.48,1.34c1.81,1,14.87,7.37,15.17,7.37.09,0,2,.85,4.26,1.88,6,2.79,9,4.1,9.36,4.1a12.21,12.21,0,0,1,2.1.85c1,.46,2.61,1.17,3.59,1.57s2.19.94,2.66,1.19,1.57.69,2.37,1,3.29,1.22,5.48,2.11,4.5,1.79,5.13,2a11.3,11.3,0,0,1,1.77.79,9,9,0,0,0,1.84.74,7.16,7.16,0,0,1,1.51.6,11.73,11.73,0,0,0,2.07.8c2.52.8,9.86,3.56,11,4.1a4.09,4.09,0,0,0,1.36.48,6.8,6.8,0,0,1,1.72.66,18.26,18.26,0,0,0,2.49,1.05c.65.2,2.54.91,4.2,1.59a30.26,30.26,0,0,0,3.35,1.26,3.56,3.56,0,0,1,1.13.42c.44.23,1.59.71,2.57,1.08,3.17,1.23,7.67,3.08,8.89,3.65.65.28,2.46,1,4,1.56a21.52,21.52,0,0,1,3.25,1.4,3.28,3.28,0,0,0,1.19.54c.41.11,1.33.45,2.07.74s2.34.94,3.56,1.42l3.1,1.28c1.55.71,8.15,3.3,9.75,3.85,1.84.62,5,1.85,6.25,2.41.5.23,1.89.75,3.11,1.17s2.87,1.08,3.67,1.45a18.39,18.39,0,0,0,2.81,1.09,34.58,34.58,0,0,1,3.88,1.42c1.4.57,3.11,1.25,3.85,1.48a12.59,12.59,0,0,1,1.93.82,8.18,8.18,0,0,0,2.07.69,6.65,6.65,0,0,1,1.93.68,8.71,8.71,0,0,0,1.92.88c.83.29,2.16.71,3,1s2,.77,2.67,1.08,2.1.91,3.23,1.34,2.6,1,3.26,1.34a21.07,21.07,0,0,0,2.36.94,67.43,67.43,0,0,1,7.91,3.1,33.57,33.57,0,0,0,3.17,1.31,58.35,58.35,0,0,1,5.51,2.27,16.61,16.61,0,0,0,2.28.86,3.48,3.48,0,0,1,1.42.74,1.33,1.33,0,0,0,.71.4,9.74,9.74,0,0,1,1.81.68c.8.37,2.43,1.11,3.55,1.59,3.79,1.65,5.93,2.59,6.82,3,6.45,3.16,12.14,6,13.32,6.6.83.43,2.4,1.28,3.56,1.88,1.92,1,4.71,2.65,8.88,5.15,1,.6,2.84,1.68,4.15,2.42s2.84,1.71,3.4,2.11,1.46,1,1.93,1.31c1.18.71,4.62,3.13,7.37,5.24l4,3c2.43,1.8,6.93,5.53,9.15,7.55a23.88,23.88,0,0,0,2.61,2.13c.38.23.71.51.71.66a21.25,21.25,0,0,0,2.46,2.56c2.75,2.65,6,6.15,10.84,11.58.5.54,1.66,2,2.6,3.28s2.23,2.93,2.91,3.73a61.43,61.43,0,0,1,4,5.8c.26.46.71,1.17,1,1.62s1,1.71,1.63,2.79a30.42,30.42,0,0,0,1.87,3.11,23.79,23.79,0,0,1,1.54,2.7l1.8,3.59c.57,1.08,1.57,3.27,2.22,4.84s1.43,3.35,1.72,4a35.16,35.16,0,0,1,2.08,6,29.06,29.06,0,0,0,1,3,21.79,21.79,0,0,1,.86,3.62,19.86,19.86,0,0,0,.62,2.84c.27.43.71,4.44,1,9.68a120.3,120.3,0,0,1-.56,18.36c-.63,3.7-1.93,10.05-2.55,12.38-.77,3-3.23,10.36-4.62,14.09-.5,1.25-1.19,3.1-1.57,4.13a29.24,29.24,0,0,1-1.18,2.7,3.57,3.57,0,0,0-.48,1.34,5.71,5.71,0,0,1-.74,1.85c-.41.77-1.18,2.39-1.75,3.64-1.63,3.73-6.16,12.76-8.26,16.46l-2.25,4a28.47,28.47,0,0,1-1.66,2.76,27.17,27.17,0,0,0-1.54,2.56,39.6,39.6,0,0,1-2,3.42,25.66,25.66,0,0,0-1.45,2.28c-1,1.93-2.61,3.7-3.32,3.7-.56,0-.65-.09-.45-.52a10.26,10.26,0,0,0,.48-2.44,13.56,13.56,0,0,1,.65-3,15.9,15.9,0,0,0,.74-3.28,18.08,18.08,0,0,1,.68-3.13,21.76,21.76,0,0,0,.74-3.73c.21-1.56.56-3.55.77-4.41a35.86,35.86,0,0,0,.71-4.27c.18-1.48.57-4.18.89-6s.74-5.38.92-8,.44-5.61.59-6.69c.36-2.68.36-19.84,0-23.06-.15-1.42-.44-4.1-.59-6a45.59,45.59,0,0,0-.74-5.12c-.21-.94-.53-2.73-.74-4a169.79,169.79,0,0,0-4.15-17.51c-1.39-4.38-3.7-11.1-4.29-12.38-.21-.48-.95-2.14-1.63-3.7a150.3,150.3,0,0,0-9.21-17.79c-.74-1.17-1.6-2.56-1.93-3.08a46.92,46.92,0,0,0-3.46-5c-.62-.8-2-2.59-3-4a69.43,69.43,0,0,0-4.8-6.12l-2.93-3.21A142.35,142.35,0,0,0,773,353.06c-1.3-1.11-2.87-2.47-3.55-3.1a94.08,94.08,0,0,0-7.82-6.21,3.13,3.13,0,0,1-1.07-.91,9.44,9.44,0,0,0-1.86-1.48c-1.72-1.11-4-2.64-7.41-5.09a13.66,13.66,0,0,0-2-1.28,27.52,27.52,0,0,1-3.52-2.42,7.82,7.82,0,0,0-1.37-.83c-.5-.25-1.71-1-2.75-1.68s-2.1-1.31-2.34-1.42-1-.6-1.78-1.05-1.92-1.17-2.66-1.57-2.14-1.19-3.11-1.79-3.32-1.88-5.19-2.88-4.14-2.25-5-2.73-3.44-1.82-5.63-2.93-4.74-2.39-5.62-2.88-2.76-1.39-4.15-2-2.84-1.36-3.26-1.59-1.21-.6-1.78-.83-1.24-.57-1.48-.71-1.57-.79-3-1.42-2.84-1.37-3.26-1.59-1.21-.63-1.77-.89c-7.56-3.47-10.28-4.72-10.67-4.95-.23-.14-1.18-.6-2.07-1s-2.55-1.13-3.7-1.68-3.35-1.48-4.89-2.13c-3.4-1.45-6.1-2.65-10.81-4.84-7.85-3.61-9.8-4.5-10.51-4.7a36.07,36.07,0,0,1-3.41-1.42c-1.45-.68-4.59-2.11-7-3.19s-4.77-2.16-5.33-2.36a12.3,12.3,0,0,1-1.78-.85,8.18,8.18,0,0,0-1.92-.86c-.62-.2-2-.79-3.11-1.28-5.21-2.5-10.6-5-10.75-5-.39,0-25.59-12.15-27.75-13.38-.89-.51-3.17-1.7-5-2.62s-3.61-1.87-3.88-2.1a1.37,1.37,0,0,0-.71-.4,25.84,25.84,0,0,1-4.71-2.42,31.23,31.23,0,0,0-3-1.68c-1.12-.57-2.93-1.54-4-2.16s-2.25-1.26-2.63-1.43a26.79,26.79,0,0,1-2.7-1.56,27.57,27.57,0,0,0-2.69-1.57,11.64,11.64,0,0,1-1.63-.94c-.53-.34-1.33-.85-1.78-1.11-1.36-.79-1.89-1.13-4.38-2.79-1.27-.85-2.9-1.87-3.58-2.27a48.73,48.73,0,0,1-5-3.33,14,14,0,0,0-2.34-1.4,2.32,2.32,0,0,1-1.27-1,1.41,1.41,0,0,0-.92-.72c-.39-.08-.71-.37-.71-.59s.2-.37,1-.23A4.1,4.1,0,0,1,539.38,226.4Zm17.29,17.76a24.58,24.58,0,0,1,6.52,3c3.43,2.08,4.14,2.48,4.38,2.48a11.91,11.91,0,0,1,2.25,1.22c1.1.65,3,1.68,4.27,2.28a15.4,15.4,0,0,1,2.49,1.36,1.89,1.89,0,0,0,.8.57c.35.15,1.45.71,2.42,1.23s3.05,1.56,4.59,2.27,3,1.46,3.26,1.6,1.57.82,3,1.51,4.54,2.24,7,3.47c6.34,3.16,7.17,3.56,7.5,3.56a17.1,17.1,0,0,1,2.43,1.14c1.18.62,2.19,1.13,2.25,1.13s4.35,1.91,9.89,4.47c3.91,1.82,6.93,3.22,13.12,6,1.66.74,3.35,1.48,3.76,1.59a4,4,0,0,1,1.33.71,4.06,4.06,0,0,0,1.45.69,5.18,5.18,0,0,1,1.63.71,6.79,6.79,0,0,0,1.51.74,14.58,14.58,0,0,1,2.08.88,7.33,7.33,0,0,0,1.71.68,7,7,0,0,1,1.81.71c1.27.66,8.09,3.82,12.47,5.78,1.07.46,2.25.94,2.66,1.06a9.08,9.08,0,0,1,1.78.88,5,5,0,0,0,1.3.68c.15,0,2,.83,4.15,1.82s5.75,2.68,8,3.7,4.38,2,4.68,2.17c1,.57,1.57.82,2.43,1.22,1.06.46,1.77.8,3,1.42.5.26,1.48.74,2.22,1.06s1.6.74,1.92.91,2.46,1.25,4.74,2.36c4,2,7.82,3.93,11,5.61.83.42,2.07,1.08,2.81,1.45s2.2,1.14,3.26,1.76c2.1,1.26,2.55,1.48,5.69,3.11a32.4,32.4,0,0,1,3,1.7,39.8,39.8,0,0,0,4,2.28,11.42,11.42,0,0,1,2,1.2,1.3,1.3,0,0,0,.68.4,9.64,9.64,0,0,1,2,1.11c.91.59,2.22,1.42,2.87,1.82s1.72,1.14,2.37,1.62a19.27,19.27,0,0,0,2.22,1.34A27.22,27.22,0,0,1,742,336.3a24.67,24.67,0,0,0,2.33,1.53,41.56,41.56,0,0,1,4.63,3.19c.17.12.88.68,1.62,1.23s1.84,1.33,2.46,1.76c1.1.74,3.91,3,5.54,4.41a23.47,23.47,0,0,0,1.93,1.51,178.74,178.74,0,0,1,15.46,14.66c3.05,3.47,7.1,8.42,7.52,9.19.21.34,1,1.4,1.72,2.34a38.93,38.93,0,0,1,3,4.07,35.47,35.47,0,0,0,2.54,4,26.2,26.2,0,0,1,1.46,2.42c.59,1.08,1.18,2.11,1.33,2.28a100.54,100.54,0,0,1,4.77,9.19,22.4,22.4,0,0,0,1.36,2.82,21.23,21.23,0,0,1,2,4.78c.3.77.65,1.68.8,2a57.47,57.47,0,0,1,2.52,7.2,11.64,11.64,0,0,0,.68,2.28,100.25,100.25,0,0,1,2.73,9.74,158.69,158.69,0,0,1,3.52,22.48c.77,7.8.86,23.71.15,28.84-.24,1.76-.56,5.37-.74,8a62.88,62.88,0,0,1-.74,6.64c-.24,1-.59,3.07-.77,4.58a35.42,35.42,0,0,1-.86,4.75,39,39,0,0,0-.89,4.67,16.4,16.4,0,0,1-.59,3.13,18,18,0,0,0-.68,2.59c-.24,1.17-.74,3.16-1.07,4.38a17,17,0,0,0-.62,3.14,8.9,8.9,0,0,1-.47,2,32.77,32.77,0,0,0-1,3.41c-.83,3.33-2.25,8.46-3.14,11.24-.45,1.34-1.1,3.45-1.48,4.7s-1.42,4.38-2.31,7a155.21,155.21,0,0,0-4.5,14.91,42.6,42.6,0,0,1-1.6,5.1c-.21.19-.39,0-.6-.43a97.79,97.79,0,0,1-1.54-10.76c-.17-1.65-.5-4-.77-5.12s-.68-3.68-1-5.58a43.6,43.6,0,0,0-.83-4.42,36.43,36.43,0,0,1-.8-3.81,38.33,38.33,0,0,0-.89-4.13c-.21-.71-.56-2.19-.77-3.27a12.06,12.06,0,0,0-.74-2.73,12.64,12.64,0,0,1-.71-2.71,37.92,37.92,0,0,0-2.13-7,7.74,7.74,0,0,1-.54-1.74c0-.45-2-6.29-3.94-11.3a190.14,190.14,0,0,0-13.26-27.55,90.88,90.88,0,0,0-5.31-8.59c-.26-.4-.74-1.17-1-1.71a18.25,18.25,0,0,0-1.39-2.14c-.48-.62-1.55-2.16-2.4-3.41a113,113,0,0,0-7.32-9.82,13.13,13.13,0,0,1-1.1-1.43c-.5-.71-1.36-1.82-1.92-2.47s-1.51-1.82-2.16-2.65c-1.13-1.42-2.52-3-5.21-6l-3.41-3.84c-2.49-2.85-10.37-10.84-13.57-13.78-1.12-1-2.72-2.53-3.58-3.3-3-2.81-8.35-7.48-11.25-9.79-1.63-1.31-3.08-2.5-3.26-2.7s-1.63-1.37-3.26-2.59-3.49-2.71-4.15-3.28-1.59-1.28-2.07-1.62-1.95-1.42-3.26-2.39-3.22-2.33-4.26-3.05-2.55-1.87-3.41-2.56a16.06,16.06,0,0,0-2.6-1.68c-.63-.25-1.13-.54-1.13-.68s-3.32-2.42-11.46-7.6a7,7,0,0,1-1.57-1.22c0-.12-.33-.26-.68-.37a6.18,6.18,0,0,1-1.84-1,5.3,5.3,0,0,0-1.45-.85,2.37,2.37,0,0,1-1-.54,7.5,7.5,0,0,0-1.6-1,30.35,30.35,0,0,1-2.6-1.59,7.76,7.76,0,0,0-2-1.11,1.72,1.72,0,0,1-.86-.54,4.5,4.5,0,0,0-1.45-.91,7.31,7.31,0,0,1-1.77-1,3.18,3.18,0,0,0-1.16-.65,17.75,17.75,0,0,1-2.87-1.54c-1.39-.85-4.41-2.53-6.69-3.73s-4.36-2.36-4.6-2.56-1.45-.88-2.66-1.57a29.54,29.54,0,0,1-2.67-1.56,3.26,3.26,0,0,0-1.27-.57,2.59,2.59,0,0,1-1.18-.68,3.85,3.85,0,0,0-1.54-.94,23.78,23.78,0,0,1-3.17-1.71c-4.74-3-5.75-3.56-7.47-4.44-1-.51-2.46-1.37-3.28-1.88-4.12-2.59-5.69-3.56-6.4-3.9-.42-.23-1.48-.88-2.37-1.48s-2.55-1.68-3.73-2.42c-5.45-3.44-10.16-6.55-11.85-7.8a14.41,14.41,0,0,0-2-1.36,19.65,19.65,0,0,1-2.28-1.54c-1.19-.85-2.64-1.94-3.23-2.36s-1.48-1.08-1.93-1.43a3.59,3.59,0,0,0-1-.65,16.5,16.5,0,0,1-2.31-1.65l-3.88-2.91c-1-.71-2.82-2.1-4.06-3.13s-2.75-2.19-3.32-2.56a12.46,12.46,0,0,1-1.33-1c-.15-.17-1.21-1.08-2.37-2-3.58-2.87-4.23-3.58-4-4.26a10.36,10.36,0,0,1,1.93-2.28c1.68-1.65,3.67-4.19,3.67-4.7s-.74-.25-2.28.66a6.67,6.67,0,0,0-1.93,1.62c-.59,1.05-3.67,3-4.44,2.7s-3.35-2.5-10.19-9a197.2,197.2,0,0,1-15.28-15.88c-1.3-1.48-2.72-3.16-3.2-3.7-3.17-3.62-8.76-10.76-10.22-13-.32-.49-1.39-2.05-2.39-3.45L506,258.79l.53-1c.53-.94,2.22-2.48,2.79-2.48a8.74,8.74,0,0,0,1.74-1.11,54.71,54.71,0,0,1,5.66-3.53c.77-.37,2.07-1,4.74-2.42s5.6-2.36,11-3.67,6.66-1.43,14.66-1.37c6.57.06,6.69.09,9.59,1Zm-31.21,47.42a.9.9,0,0,0,.53.68,104.08,104.08,0,0,1,8,7.26,24,24,0,0,0,2.1,2c1.89,1.54,4.23,4,4.5,4.76a2.44,2.44,0,0,0,1.51,1.34,6,6,0,0,1,1.6.93c.89,1.06-.65,2.54-2.58,2.54-1.39,0-2.07-.46-2.07-1.43,0-1.22-.3-1.7-1-1.7-.47,0-1.12-.49-2-1.45-.71-.8-1.75-2-2.34-2.62a14.89,14.89,0,0,1-1.6-2.17,9.56,9.56,0,0,0-1.21-1.7,23.75,23.75,0,0,1-3.5-4.53,1.74,1.74,0,0,0-.8-.91,1.09,1.09,0,0,1-.56-.71,1.18,1.18,0,0,0-.59-.77c-.63-.37-.86-1.94-.3-1.94C525.34,291.15,525.46,291.35,525.46,291.58Zm24,21.69c.53.43,2,1.68,3.34,2.79s3.11,2.5,4,3.13a31.57,31.57,0,0,1,3.11,2.45,28.73,28.73,0,0,0,2.52,2,58.64,58.64,0,0,1,6,4.47,2,2,0,0,0,.83.6,5.37,5.37,0,0,1,1.36.79c5.33,3.9,5.87,4.27,12,8.34,7.07,4.64,8.26,5.41,9.15,5.87a15.12,15.12,0,0,1,2.34,1.48A31.83,31.83,0,0,0,598.7,348a23.42,23.42,0,0,1,2.31,1.51,11,11,0,0,0,2,1.2,26.13,26.13,0,0,1,3.79,2.19,10.89,10.89,0,0,0,1.84,1,7.5,7.5,0,0,1,1.72,1,4.26,4.26,0,0,0,1.51.86,3.44,3.44,0,0,1,1.21.65,60.41,60.41,0,0,0,7.44,4.24,26.3,26.3,0,0,1,2.72,1.51,22.72,22.72,0,0,0,2.37,1.39c1.07.6,2.76,1.54,3.73,2.11s3.2,1.82,4.89,2.73a35.11,35.11,0,0,1,3.61,2.14,38.51,38.51,0,0,0,4.5,2.59c.66.31,2.73,1.54,4.6,2.7s3.79,2.37,4.26,2.65c.8.46,5.78,3.53,7.7,4.78.47.29,1.33.86,2,1.25,1.27.8,6.33,4.22,8.14,5.47.65.45,2.31,1.59,3.7,2.53a66.44,66.44,0,0,1,5.87,4.24,16.45,16.45,0,0,0,2.45,1.71,6.38,6.38,0,0,1,1.57,1.2c.69.68,2.79,2.36,4.65,3.78,3.59,2.74,5.45,4.24,8.62,7.06,1.1.94,2.25,1.88,2.55,2.05A31.48,31.48,0,0,1,701.2,415c1.28,1.17,3.41,3.13,4.74,4.33,3.61,3.3,9.6,9.05,11.52,11.07.95,1,2.85,2.93,4.21,4.3s2.84,3,3.31,3.56,1.22,1.45,1.66,1.9,1.37,1.51,2,2.31,1.51,1.82,2,2.3,1.16,1.28,1.57,1.83,1.42,1.76,2.22,2.73,1.87,2.27,2.31,2.87,1.45,1.88,2.22,2.88a65.28,65.28,0,0,1,4.74,6.4,10.54,10.54,0,0,0,1.25,1.77,2.53,2.53,0,0,1,.59.79,13.42,13.42,0,0,0,1.3,2c.74,1,1.81,2.71,2.4,3.7a13.68,13.68,0,0,0,1.36,2,3.84,3.84,0,0,1,.74,1.06c.24.51.89,1.62,1.4,2.5s1.63,2.88,2.48,4.41,1.81,3.28,2.14,3.82a42.14,42.14,0,0,1,3.28,7.68c.21.86.63,2.25.95,3.11a9.43,9.43,0,0,1,.53,2.5,9.72,9.72,0,0,0,.63,2.65c.59,1.65,1.09,4,2.34,10.67.32,1.71.8,4,1,5.12.6,2.74,1.07,8.77,1.25,16.23.17,7.09-.45,15.85-1.4,19.5a32.89,32.89,0,0,0-.74,3.84,13.4,13.4,0,0,1-.77,3.1,27.6,27.6,0,0,0-.88,3,12.81,12.81,0,0,1-.89,2.59,3.88,3.88,0,0,0-.57,1.51,4.34,4.34,0,0,1-.56,1.56,19.57,19.57,0,0,0-.92,2.2,119.92,119.92,0,0,1-6.51,12.66c-.62.86-1.51,2.19-2,3-1.77,2.71-4.79,6.83-7.25,9.82-1.07,1.28-2.76,3.3-3,3.59l-1.63,1.82c-5.16,5.78-9.36,9.93-18.51,18.22-.8.74-2.82,2.44-4.44,3.84s-4,3.36-5.19,4.44-2.78,2.36-3.43,2.87c-1.6,1.23-6.25,5.16-8.71,7.35-1.07.94-2.93,2.5-4.15,3.47s-2.9,2.36-3.73,3.07-2,1.74-2.69,2.28c-2.08,1.71-5.48,4.67-6.46,5.55-.5.46-2.31,2.08-4,3.56-5.06,4.47-8.47,7.63-12.5,11.67-2.13,2.11-4.26,4.24-4.76,4.7s-2.2,2.19-3.74,3.84-3.08,3.22-3.43,3.53c-.56.54-1.87,2-3.53,3.9-.29.37-1.24,1.45-2.07,2.39s-1.63,1.91-1.81,2.16a16.47,16.47,0,0,1-1.65,2c-1.78,2-3.83,4.42-4.39,5.27-1.51,2.33-3.76,4.92-4.26,4.92s-.51-.11-.36-1.22a18.93,18.93,0,0,1,1.51-3.7c.71-1.37,1.45-3,1.66-3.53a5.1,5.1,0,0,1,.71-1.48,10.43,10.43,0,0,0,1-1.56,135.86,135.86,0,0,1,7.34-12.7,15,15,0,0,0,1.6-2.79,2.11,2.11,0,0,1,.74-.94,2,2,0,0,0,.74-.94A39.58,39.58,0,0,1,655,664.6c.3-.4,1.63-2.31,3-4.27s3.53-4.93,4.8-6.55,2.61-3.39,2.93-3.87c1.07-1.59,2.93-4.18,4.44-6.18.83-1.05,2-2.7,2.76-3.7s1.57-2.22,2-2.76,1-1.59,1.45-2.33a24.31,24.31,0,0,1,1.75-2.71c.56-.76,1.25-1.76,1.51-2.22s.8-1.33,1.16-1.9c1.45-2.34,4.65-7.89,5.6-9.77.56-1.11,1.24-2.39,1.51-2.84s.85-1.63,1.27-2.56a24.15,24.15,0,0,1,1.3-2.42,5.43,5.43,0,0,0,.74-1.43,17.91,17.91,0,0,1,.89-2.13c1-2,1.9-4.3,2.55-6.12.32-.86.68-1.82.86-2.14s.53-1.28.83-2.13,1.06-2.85,1.68-4.41,1.16-3.16,1.25-3.56c.15-.83,1.33-4.78,2.16-7.26a32.33,32.33,0,0,0,1-4.21,18,18,0,0,1,.62-2.76,38,38,0,0,0,.74-4.19c.33-2.16.77-5.09,1-6.49.94-6,.8-22.65-.27-26.84-.24-1-.59-3-.77-4.5a68,68,0,0,0-2.31-10.58,15.27,15.27,0,0,1-.62-2.62,19,19,0,0,0-.92-3.39,7.3,7.3,0,0,1-.56-1.62,65.25,65.25,0,0,0-2.37-7.37c-.3-.8-.71-2-.89-2.71a35.37,35.37,0,0,0-1.39-3.84c-.6-1.42-1.19-3-1.34-3.56-.38-1.28-2.19-5.78-2.93-7.29a8.91,8.91,0,0,1-.56-1.36,29.78,29.78,0,0,0-2.22-4.73,7.39,7.39,0,0,1-.8-1.7,39.71,39.71,0,0,0-2.25-5c-.8-1.28-3.41-6.34-3.94-7.68-.77-1.94-.74-2.42.12-2.19s5.92,3.44,13.83,8.74c1.18.76,2.58,1.68,3.14,2a7.49,7.49,0,0,1,1.51,1.08c.29.25,1.75,1.31,3.2,2.3,5.71,3.93,12.82,9.06,16.73,12.1,1.66,1.28,2.9,2.22,4.56,3.42a15.42,15.42,0,0,1,2.34,2.05,3.79,3.79,0,0,0,1.42,1.08,2.28,2.28,0,0,1,1,.71,9.55,9.55,0,0,0,1.95,1.71c1.46,1.08,1.9,1.28,2.11,1a1.54,1.54,0,0,0,.26-.62,9.1,9.1,0,0,0-2.34-2.85c-.56-.51-1.36-1.25-1.8-1.68s-2-1.76-3.59-3c-2.39-1.87-7.58-6-9.15-7.28a13.8,13.8,0,0,0-1.33-.91,17.06,17.06,0,0,1-1.93-1.51,13.39,13.39,0,0,0-1.77-1.45c-.42-.26-1.81-1.28-3.14-2.31s-3.23-2.42-4.27-3.13-2.54-1.82-3.4-2.45a20.86,20.86,0,0,0-2.22-1.54,18,18,0,0,1-2.28-1.59,9.78,9.78,0,0,0-1.87-1.25A1.29,1.29,0,0,1,693,471a37.94,37.94,0,0,0-5-3.5,10.48,10.48,0,0,1-1.71-1.11c-.42-.37-2.28-1.63-4.15-2.82s-3.94-2.51-4.59-3a9.92,9.92,0,0,0-1.69-1c-.53-.17-1.63-1.65-2.84-3.73-.36-.65-1.07-1.73-1.54-2.44s-1.1-1.74-1.39-2.28a7.85,7.85,0,0,0-1.13-1.65c-.33-.37-1.39-1.94-2.37-3.47s-3.23-4.81-5-7.29-3.5-4.87-3.77-5.27-.68-1-.91-1.31c-1.81-2.13-3.11-3.75-3.59-4.49a8.14,8.14,0,0,0-1-1.34c-.83-.83-2.91-3.27-5.84-6.92-.77-.94-1.54-1.85-1.72-2s-.71-.8-1.21-1.42-1.07-1.31-1.33-1.57-.83-1-1.31-1.56a21.61,21.61,0,0,0-1.92-2.17c-.59-.57-2.07-2.16-3.29-3.56s-3-3.27-3.85-4.24-3-3.24-4.74-5.12c-2.78-3-5.42-5.66-16.73-16.88-1.78-1.79-5.1-5-7.35-7.12s-4.68-4.46-5.33-5.18-1.69-1.65-2.22-2.13c-1.95-1.74-32.31-30.85-35.6-34.19l-5.65-5.69c-1.22-1.22-2.88-3-3.65-4a14.72,14.72,0,0,0-1.92-2.14,33.25,33.25,0,0,1-4.47-4.89c-.42-.77-.39-.83.88-1.91C546.63,312.22,548,312.1,549.51,313.27ZM774.86,529.11c.5,2.11,1.3,5.38,1.75,7.26s.94,4.13,1,5,.39,2.42.63,3.47.62,3.28.85,5,.63,3.53.77,4.07c.27.94,1.13,8.4,1.75,15.37.83,9.25.86,28.52,0,36.29-.59,5.36-1.24,10.05-1.72,12.1-.26,1.17-.71,3.36-1,4.84A97.77,97.77,0,0,1,776.61,633a9,9,0,0,0-.63,2,8.86,8.86,0,0,1-.71,2.08,6.66,6.66,0,0,0-.59,2,33.41,33.41,0,0,1-1.45,4.7c-.71,1.82-1.36,3.67-1.48,4.13a73.12,73.12,0,0,1-2.87,7.17,7.53,7.53,0,0,0-.57,1.42,13.08,13.08,0,0,1-.88,2,9.44,9.44,0,0,0-.89,2,1.22,1.22,0,0,1-.45.68,3.88,3.88,0,0,0-.77,1.54,20.68,20.68,0,0,1-1.77,3.58,14.85,14.85,0,0,0-1.46,2.88,2.53,2.53,0,0,1-.59,1.2,3,3,0,0,0-.59.91c0,.17-1.13,2.07-4.12,6.91-.74,1.17-5.36,7.92-7.58,11-.53.77-1.69,2.19-2.52,3.13s-2.22,2.59-3.11,3.7A152.8,152.8,0,0,1,726,713.16a145.36,145.36,0,0,1-15.13,10.93c-.65.39-2.37,1.5-3.88,2.5a18,18,0,0,1-3.08,1.77,4.31,4.31,0,0,0-1.48.85,4.93,4.93,0,0,1-1.48.85,2.87,2.87,0,0,0-1.16.6c-.41.31-3.08,1.71-5.92,3.1s-5.42,2.68-5.72,2.82c-.65.31-3.76,1.71-6.16,2.73-1,.43-3.43,1.54-5.48,2.48-6.19,2.88-8.91,4.1-11.25,5.1a29.11,29.11,0,0,0-3,1.39c-.42.23-1.75.88-3,1.42a22.17,22.17,0,0,0-2.66,1.31c-.24.17-1.72,1-3.26,1.8-2.55,1.33-5.71,3.16-8.65,4.92-1.83,1.11-5,3.3-6.66,4.58-4.47,3.5-4.18,3.19-9.66,9.2a34.73,34.73,0,0,0-5.15,7.37c-.56,1.08-1.27,2.45-1.54,3a12.64,12.64,0,0,0-.92,2.42c-.5,1.88-.74,2.07-1.39,1.11-1.15-1.71-1.54-17.34-.59-25.16.89-7.29,2.46-15.83,3.14-17a9.7,9.7,0,0,0,.59-1.82A70.23,70.23,0,0,1,626.33,731a8.15,8.15,0,0,0,.71-1.82,5.25,5.25,0,0,1,.57-1.4,60.07,60.07,0,0,0,2.69-6.09,9.11,9.11,0,0,1,.83-1.7c.18-.2,1.18-2,2.28-4s2.16-3.9,2.34-4.12a18.37,18.37,0,0,0,1.36-2.14c.54-.94,1.19-1.93,1.39-2.19a7.7,7.7,0,0,0,.92-1.34c.89-1.53,3.41-5.23,4.71-6.91a8.19,8.19,0,0,0,1.27-1.91A11.42,11.42,0,0,1,647,695.2a16.7,16.7,0,0,0,1.63-2,88.16,88.16,0,0,1,6-7.45,13.67,13.67,0,0,0,1.4-1.77,11.4,11.4,0,0,1,1.51-1.74c.83-.85,2.51-2.73,3.73-4.12s3.85-4.24,5.83-6.26L672.8,666c2.46-2.53,3.76-3.79,10.37-9.82,2.75-2.5,5.53-5.07,6.19-5.72s2.81-2.51,4.76-4.16,3.82-3.3,4.15-3.64a18.9,18.9,0,0,1,2.19-1.79,24.51,24.51,0,0,0,2.08-1.6c.26-.25,2.16-1.88,4.17-3.58l5.33-4.59c.89-.76,2.19-1.87,2.85-2.42,8.67-6.91,25.67-23,31.42-29.74,2.93-3.47,5.6-6.77,6.19-7.66.29-.48,1.09-1.51,1.75-2.33s1.89-2.53,2.75-3.84,2-3.08,2.58-3.93a7.24,7.24,0,0,0,1-2,1.28,1.28,0,0,1,.45-.83,56.33,56.33,0,0,0,4.14-8,39.66,39.66,0,0,1,2.2-4.87,6.93,6.93,0,0,0,.62-1.59c0-.14.38-1.62.86-3.24a85.21,85.21,0,0,0,2.37-10.22c.17-1.17.47-3.05.65-4.13s.44-6.23.53-11.41c.15-7.52.27-9.51.59-9.91C773.62,524.33,773.76,524.64,774.86,529.11ZM635.93,699.44a.69.69,0,0,1-.3.59c-.15.09-.3-.08-.3-.39s.15-.6.3-.6S635.93,699.21,635.93,699.44Z" transform="translate(-53.24 -146.77)"/><text class="cls-2" transform="translate(0 350.64)">The</text><text class="cls-3" transform="translate(472.06 574.32) scale(0.97 1)">Ladies</text><text class="cls-4" transform="translate(152.84 474.85) scale(0.87 1)">Classic</text></svg>